<?xml version="1.0" encoding="UTF-8" standalone="no"?>
<!-- Created with Inkscape (http://www.inkscape.org/) -->

<svg
   xmlns:dc="http://purl.org/dc/elements/1.1/"
   xmlns:cc="http://creativecommons.org/ns#"
   xmlns:rdf="http://www.w3.org/1999/02/22-rdf-syntax-ns#"
   xmlns:svg="http://www.w3.org/2000/svg"
   xmlns="http://www.w3.org/2000/svg"
   xmlns:sodipodi="http://sodipodi.sourceforge.net/DTD/sodipodi-0.dtd"
   xmlns:inkscape="http://www.inkscape.org/namespaces/inkscape"
   width="256"
   height="256"
   viewBox="0 0 67.733332 67.733335"
   version="1.1"
   id="svg4491"
   inkscape:version="0.92.1 r15371"
   sodipodi:docname="fatal.svg">
  <defs
     id="defs4485" />
  <sodipodi:namedview
     id="base"
     pagecolor="#ffffff"
     bordercolor="#666666"
     borderopacity="1.0"
     inkscape:pageopacity="0.0"
     inkscape:pageshadow="2"
     inkscape:zoom="5.1328125"
     inkscape:cx="128"
     inkscape:cy="105.27978"
     inkscape:document-units="mm"
     inkscape:current-layer="layer1"
     showgrid="false"
     units="px"
     inkscape:window-width="1819"
     inkscape:window-height="1057"
     inkscape:window-x="93"
     inkscape:window-y="-8"
     inkscape:window-maximized="1" />
  <metadata
     id="metadata4488">
    <rdf:RDF>
      <cc:Work
         rdf:about="">
        <dc:format>image/svg+xml</dc:format>
        <dc:type
           rdf:resource="http://purl.org/dc/dcmitype/StillImage" />
        <dc:title></dc:title>
      </cc:Work>
    </rdf:RDF>
  </metadata>
  <g
     inkscape:label="Layer 1"
     inkscape:groupmode="layer"
     id="layer1"
     transform="translate(0,-229.26665)">
    <path
       inkscape:connector-curvature="0"
       d="m 65.165896,286.71672 -29.089125,-49.6835 c -0.4559,-0.7786 -1.298359,-1.25845 -2.210156,-1.25845 -0.911902,0 -1.754362,0.47985 -2.210261,1.25845 l -29.0889171,49.6835 c -0.4557946,0.7786 -0.4557946,1.73809 0,2.5169 0.4558987,0.7786 1.2984627,1.25825 2.2102601,1.25825 h 58.17794 c 0.911797,0 1.754465,-0.47965 2.210259,-1.25825 0.4559,-0.77881 0.455691,-1.7383 0,-2.5169 z"
       style="fill:#e63d3d;fill-opacity:1;stroke-width:0.10338445"
       id="path2231" />
    <polygon
       points="313.938,101.892 93.977,482.877 533.902,482.877 "
       style="fill:#ffffff"
       id="polygon2233"
       transform="matrix(0.10411023,0,0,0.10266373,1.1824585,234.87769)" />
    <path
       inkscape:connector-curvature="0"
       d="m 31.569423,270.12831 c 0.125244,1.17941 0.334089,2.0578 0.626535,2.63476 0.292341,0.57728 0.814454,0.86546 1.56613,0.86546 0.0355,0 0.173552,0 0.208845,0 0.75178,0 1.273892,-0.28818 1.566339,-0.86546 0.292445,-0.57696 0.501186,-1.45535 0.626535,-2.63476 l 0.668387,-9.11171 c 0.125245,-1.77537 0.187919,-3.04984 0.187919,-3.8235 0,-1.05241 -0.302752,-1.87373 -0.908361,-2.46342 -0.575625,-0.56034 -1.393828,-0.88178 -2.245241,-0.88178 -0.851414,0 -1.669512,0.32144 -2.244929,0.88178 -0.605505,0.58969 -0.908467,1.41101 -0.908467,2.46342 0,0.77366 0.06268,2.04813 0.18792,3.8235 z"
       id="path2235"
       style="fill:#e63d3d;fill-opacity:1;stroke-width:0.10338445" />
    <ellipse
       cx="33.866611"
       cy="279.10461"
       id="circle2237"
       rx="3.201077"
       ry="3.1566017"
       style="fill:#e63d3d;fill-opacity:1;stroke-width:0.10338445" />
  </g>
</svg>
