<?xml version="1.0" encoding="UTF-8" standalone="no"?>
<!-- Created with Inkscape (http://www.inkscape.org/) -->

<svg
   xmlns:dc="http://purl.org/dc/elements/1.1/"
   xmlns:cc="http://creativecommons.org/ns#"
   xmlns:rdf="http://www.w3.org/1999/02/22-rdf-syntax-ns#"
   xmlns:svg="http://www.w3.org/2000/svg"
   xmlns="http://www.w3.org/2000/svg"
   xmlns:sodipodi="http://sodipodi.sourceforge.net/DTD/sodipodi-0.dtd"
   xmlns:inkscape="http://www.inkscape.org/namespaces/inkscape"
   width="256"
   height="256"
   viewBox="0 0 67.733332 67.733335"
   version="1.1"
   id="svg4491"
   inkscape:version="0.92.1 r15371"
   sodipodi:docname="icon.svg">
  <defs
     id="defs4485" />
  <sodipodi:namedview
     id="base"
     pagecolor="#ffffff"
     bordercolor="#666666"
     borderopacity="1.0"
     inkscape:pageopacity="0.0"
     inkscape:pageshadow="2"
     inkscape:zoom="1.8147233"
     inkscape:cx="5.3312902"
     inkscape:cy="105.27978"
     inkscape:document-units="mm"
     inkscape:current-layer="layer1"
     showgrid="false"
     units="px"
     inkscape:window-width="1819"
     inkscape:window-height="1057"
     inkscape:window-x="93"
     inkscape:window-y="-8"
     inkscape:window-maximized="1" />
  <metadata
     id="metadata4488">
    <rdf:RDF>
      <cc:Work
         rdf:about="">
        <dc:format>image/svg+xml</dc:format>
        <dc:type
           rdf:resource="http://purl.org/dc/dcmitype/StillImage" />
        <dc:title></dc:title>
      </cc:Work>
    </rdf:RDF>
  </metadata>
  <g
     inkscape:label="Layer 1"
     inkscape:groupmode="layer"
     id="layer1"
     transform="translate(0,-229.26665)">
    <rect
       style="fill:#d2eefc;fill-opacity:1;fill-rule:nonzero;stroke:none;stroke-width:3.31899214;stroke-miterlimit:4;stroke-dasharray:none;stroke-opacity:1"
       id="rect5040"
       width="68.973274"
       height="15.635267"
       x="-0.61995721"
       y="281.95242" />
    <text
       xml:space="preserve"
       style="font-style:normal;font-variant:normal;font-weight:normal;font-stretch:normal;font-size:13.21481323px;line-height:1.25;font-family:sans-serif;-inkscape-font-specification:'sans-serif, Normal';font-variant-ligatures:normal;font-variant-caps:normal;font-variant-numeric:normal;font-feature-settings:normal;text-align:start;letter-spacing:0px;word-spacing:0px;writing-mode:lr-tb;text-anchor:start;fill:#000000;fill-opacity:1;stroke:none;stroke-width:0.33037031"
       x="10.927867"
       y="294.73486"
       id="text5038"><tspan
         sodipodi:role="line"
         id="tspan5036"
         x="10.927867"
         y="294.73486"
         style="font-style:normal;font-variant:normal;font-weight:normal;font-stretch:normal;font-size:13.21481323px;font-family:sans-serif;-inkscape-font-specification:'sans-serif, Normal';font-variant-ligatures:normal;font-variant-caps:normal;font-variant-numeric:normal;font-feature-settings:normal;text-align:start;writing-mode:lr-tb;text-anchor:start;stroke-width:0.33037031">//xn--...</tspan></text>
    <path
       inkscape:connector-curvature="0"
       d="M 61.471529,276.49917 35.815904,232.68 c -0.402088,-0.6867 -1.145109,-1.10991 -1.949283,-1.10991 -0.804267,0 -1.547288,0.42321 -1.949375,1.10991 L 6.261804,276.49917 c -0.4019954,0.6867 -0.4019954,1.53294 0,2.21982 0.4020872,0.6867 1.1452002,1.10973 1.9493747,1.10973 H 59.522155 c 0.804174,0 1.547379,-0.42303 1.949374,-1.10973 0.402088,-0.68688 0.401904,-1.53312 0,-2.21982 z"
       style="fill:#c5c5c5;stroke-width:0.09118159;fill-opacity:1"
       id="path2231" />
    <polygon
       points="313.938,101.892 93.977,482.877 533.902,482.877 "
       style="fill:#ffffff"
       id="polygon2233"
       transform="matrix(0.0918217,0,0,0.09054594,5.0402999,230.7789)" />
    <path
       inkscape:connector-curvature="0"
       d="m 31.840575,261.86875 c 0.110461,1.0402 0.294656,1.81491 0.552583,2.32377 0.257835,0.50914 0.718321,0.76331 1.381274,0.76331 0.03131,0 0.153067,0 0.184194,0 0.663045,0 1.12353,-0.25417 1.381458,-0.76331 0.257927,-0.50886 0.442029,-1.28357 0.552583,-2.32377 l 0.589495,-8.03622 c 0.110461,-1.56581 0.165738,-2.68985 0.165738,-3.3722 0,-0.92819 -0.267017,-1.65256 -0.801144,-2.17265 -0.507682,-0.4942 -1.229309,-0.7777 -1.980227,-0.7777 -0.750918,0 -1.472453,0.2835 -1.979951,0.7777 -0.534035,0.52009 -0.801237,1.24446 -0.801237,2.17265 0,0.68235 0.05528,1.80639 0.165739,3.3722 z"
       id="path2235"
       style="stroke-width:0.09118159;fill:#c8c8c8;fill-opacity:1" />
    <ellipse
       cx="33.866619"
       cy="269.78555"
       id="circle2237"
       rx="2.8232417"
       ry="2.7840159"
       style="stroke-width:0.09118159;fill:#c8c8c8;fill-opacity:1" />
  </g>
</svg>
